HIERARCHY
ROOT Hips
{
	OFFSET -14.64140 90.27770 -84.91600
	CHANNELS 6 Xposition Yposition Zposition Zrotation Xrotation Yrotation
	JOINT Spine
	{
		OFFSET 0.00000 13.20850 -1.60436
		CHANNELS 3 Zrotation Xrotation Yrotation
		JOINT Spine1
		{
			OFFSET 0.00000 8.61716 0.00000
			CHANNELS 3 Zrotation Xrotation Yrotation
			JOINT Spine2
			{
				OFFSET 0.00000 8.61717 0.00000
				CHANNELS 3 Zrotation Xrotation Yrotation
				JOINT Spine3
				{
					OFFSET 0.00000 8.61717 0.00000
					CHANNELS 3 Zrotation Xrotation Yrotation
					JOINT Neck
					{
						OFFSET 0.00000 11.07920 1.10792
						CHANNELS 3 Zrotation Xrotation Yrotation
						JOINT Neck1
						{
							OFFSET 0.00000 7.08032 0.00000
							CHANNELS 3 Zrotation Xrotation Yrotation
							JOINT Head
							{
								OFFSET 0.00000 7.08031 0.00000
								CHANNELS 3 Zrotation Xrotation Yrotation
								End site
								{
									OFFSET 0.00000 0.00000 0.00000
								}
							}
						}
					}
					JOINT RightShoulder
					{
						OFFSET -0.01000 7.91373 5.19711
						CHANNELS 3 Zrotation Xrotation Yrotation
						JOINT RightArm
						{
							OFFSET -18.41580 0.00000 0.00000
							CHANNELS 3 Zrotation Xrotation Yrotation
							JOINT RightForeArm
							{
								OFFSET -29.11090 0.00000 0.00000
								CHANNELS 3 Zrotation Xrotation Yrotation
								JOINT RightHand
								{
									OFFSET -24.65040 0.00000 0.00000
									CHANNELS 3 Zrotation Xrotation Yrotation
									JOINT RightHandThumb1
									{
										OFFSET -5.35114 -0.85590 3.97906
										CHANNELS 3 Zrotation Xrotation Yrotation
										JOINT RightHandThumb2
										{
											OFFSET -4.52789 0.00000 0.00000
											CHANNELS 3 Zrotation Xrotation Yrotation
											JOINT RightHandThumb3
											{
												OFFSET -2.46976 0.00000 0.00000
												CHANNELS 3 Zrotation Xrotation Yrotation
												End site
												{
													OFFSET 0.00000 0.00000 0.00000
												}
											}
										}
									}
									JOINT RightHandIndex1
									{
										OFFSET -14.26970 0.00000 2.88139
										CHANNELS 3 Zrotation Xrotation Yrotation
										JOINT RightHandIndex2
										{
											OFFSET -5.48836 0.00000 0.00000
											CHANNELS 3 Zrotation Xrotation Yrotation
											JOINT RightHandIndex3
											{
												OFFSET -3.01859 0.00000 0.00000
												CHANNELS 3 Zrotation Xrotation Yrotation
												End site
												{
													OFFSET 0.00000 0.00000 0.00000
												}
											}
										}
									}
									JOINT RightHandMiddle1
									{
										OFFSET -14.26970 0.00000 -0.09147
										CHANNELS 3 Zrotation Xrotation Yrotation
										JOINT RightHandMiddle2
										{
											OFFSET -6.17441 0.00000 0.00000
											CHANNELS 3 Zrotation Xrotation Yrotation
											JOINT RightHandMiddle3
											{
												OFFSET -3.56743 0.00000 0.00000
												CHANNELS 3 Zrotation Xrotation Yrotation
												End site
												{
													OFFSET 0.00000 0.00000 0.00000
												}
											}
										}
									}
									JOINT RightHandRing1
									{
										OFFSET -12.69180 0.00000 -3.06433
										CHANNELS 3 Zrotation Xrotation Yrotation
										JOINT RightHandRing2
										{
											OFFSET -5.62556 0.00000 0.00000
											CHANNELS 3 Zrotation Xrotation Yrotation
											JOINT RightHandRing3
											{
												OFFSET -3.56744 0.00000 0.00000
												CHANNELS 3 Zrotation Xrotation Yrotation
												End site
												{
													OFFSET 0.00000 0.00000 0.00000
												}
											}
										}
									}
									JOINT RightHandPinky1
									{
										OFFSET -11.11390 0.00000 -6.03719
										CHANNELS 3 Zrotation Xrotation Yrotation
										JOINT RightHandPinky2
										{
											OFFSET -4.52789 0.00000 0.00000
											CHANNELS 3 Zrotation Xrotation Yrotation
											JOINT RightHandPinky3
											{
												OFFSET -2.46976 0.00000 0.00000
												CHANNELS 3 Zrotation Xrotation Yrotation
												End site
												{
													OFFSET 0.00000 0.00000 0.00000
												}
											}
										}
									}
								}
							}
						}
					}
					JOINT LeftShoulder
					{
						OFFSET 0.01000 7.91373 5.19711
						CHANNELS 3 Zrotation Xrotation Yrotation
						JOINT LeftArm
						{
							OFFSET 18.41580 0.00000 0.00000
							CHANNELS 3 Zrotation Xrotation Yrotation
							JOINT LeftForeArm
							{
								OFFSET 29.11090 0.00000 0.00000
								CHANNELS 3 Zrotation Xrotation Yrotation
								JOINT LeftHand
								{
									OFFSET 24.65040 0.00000 0.00000
									CHANNELS 3 Zrotation Xrotation Yrotation
									JOINT LeftHandThumb1
									{
										OFFSET 5.35114 -0.85590 3.97906
										CHANNELS 3 Zrotation Xrotation Yrotation
										JOINT LeftHandThumb2
										{
											OFFSET 4.52789 0.00000 0.00000
											CHANNELS 3 Zrotation Xrotation Yrotation
											JOINT LeftHandThumb3
											{
												OFFSET 2.46977 0.00000 0.00000
												CHANNELS 3 Zrotation Xrotation Yrotation
												End site
												{
													OFFSET 0.00000 0.00000 0.00000
												}
											}
										}
									}
									JOINT LeftHandIndex1
									{
										OFFSET 14.26970 0.00000 2.88139
										CHANNELS 3 Zrotation Xrotation Yrotation
										JOINT LeftHandIndex2
										{
											OFFSET 5.48836 0.00000 0.00000
											CHANNELS 3 Zrotation Xrotation Yrotation
											JOINT LeftHandIndex3
											{
												OFFSET 3.01859 0.00000 0.00000
												CHANNELS 3 Zrotation Xrotation Yrotation
												End site
												{
													OFFSET 0.00000 0.00000 0.00000
												}
											}
										}
									}
									JOINT LeftHandMiddle1
									{
										OFFSET 14.26970 0.00000 -0.09147
										CHANNELS 3 Zrotation Xrotation Yrotation
										JOINT LeftHandMiddle2
										{
											OFFSET 6.17440 0.00000 0.00000
											CHANNELS 3 Zrotation Xrotation Yrotation
											JOINT LeftHandMiddle3
											{
												OFFSET 3.56744 0.00000 0.00000
												CHANNELS 3 Zrotation Xrotation Yrotation
												End site
												{
													OFFSET 0.00000 0.00000 0.00000
												}
											}
										}
									}
									JOINT LeftHandRing1
									{
										OFFSET 12.69180 0.00000 -3.06433
										CHANNELS 3 Zrotation Xrotation Yrotation
										JOINT LeftHandRing2
										{
											OFFSET 5.62556 0.00000 0.00000
											CHANNELS 3 Zrotation Xrotation Yrotation
											JOINT LeftHandRing3
											{
												OFFSET 3.56744 0.00000 0.00000
												CHANNELS 3 Zrotation Xrotation Yrotation
												End site
												{
													OFFSET 0.00000 0.00000 0.00000
												}
											}
										}
									}
									JOINT LeftHandPinky1
									{
										OFFSET 11.11390 0.00000 -6.03719
										CHANNELS 3 Zrotation Xrotation Yrotation
										JOINT LeftHandPinky2
										{
											OFFSET 4.52789 0.00000 0.00000
											CHANNELS 3 Zrotation Xrotation Yrotation
											JOINT LeftHandPinky3
											{
												OFFSET 2.46976 0.00000 0.00000
												CHANNELS 3 Zrotation Xrotation Yrotation
												End site
												{
													OFFSET 0.00000 0.00000 0.00000
												}
											}
										}
									}
								}
							}
						}
					}
					JOINT pCube4
					{
						OFFSET 0.00000 10.91090 1.10792
						CHANNELS 3 Zrotation Xrotation Yrotation
						End site
						{
							OFFSET 0.00000 0.00000 0.00000
						}
					}
				}
			}
		}
	}
	JOINT RightUpLeg
	{
		OFFSET -9.98441 0.00000 0.00000
		CHANNELS 3 Zrotation Xrotation Yrotation
		JOINT RightLeg
		{
			OFFSET 0.00000 -42.11790 0.00000
			CHANNELS 3 Zrotation Xrotation Yrotation
			JOINT RightFoot
			{
				OFFSET 0.00000 -45.00020 -0.00001
				CHANNELS 3 Zrotation Xrotation Yrotation
				JOINT RightForeFoot
				{
					OFFSET 0.00000 -3.74820 0.00000
					CHANNELS 3 Zrotation Xrotation Yrotation
					JOINT RightToeBase
					{
						OFFSET 0.00000 0.06325 14.43120
						CHANNELS 3 Zrotation Xrotation Yrotation
						End site
						{
							OFFSET 0.00000 0.00000 0.00000
						}
					}
				}
			}
		}
	}
	JOINT LeftUpLeg
	{
		OFFSET 9.98441 0.00000 0.00000
		CHANNELS 3 Zrotation Xrotation Yrotation
		JOINT LeftLeg
		{
			OFFSET 0.00000 -42.11800 0.00000
			CHANNELS 3 Zrotation Xrotation Yrotation
			JOINT LeftFoot
			{
				OFFSET 0.00000 -45.00070 0.00000
				CHANNELS 3 Zrotation Xrotation Yrotation
				JOINT LeftForeFoot
				{
					OFFSET 0.00000 -3.74824 0.00000
					CHANNELS 3 Zrotation Xrotation Yrotation
					JOINT LeftToeBase
					{
						OFFSET 0.00000 0.06325 14.43110
						CHANNELS 3 Zrotation Xrotation Yrotation
						End site
						{
							OFFSET 0.00000 0.00000 0.00000
						}
					}
				}
			}
		}
	}
}
MOTION
Frames: 4
Frame Time: 0.050000
0.03317446243887057 0.009571862725777302 0.0045150261826102074 -0.032300226226365206 -0.02769401859004846 -0.03163490712340269 -1.8405660849611702 1.3758593314594352 -0.8740246080873907 -0.9770464303191289 3.8092813108409627 0.3504296775177833 -1.1501470001921736 -1.8187392010978736 -0.608579839734972 0.029443912571718835 0.3707935949297203 -0.8008693294306877 -0.19765376432137308 14.083879109594342 -0.03657948181866307 -0.08792421986201251 0.3203937025394425 -2.099346992518917 -0.03172468328485868 -14.769171055088666 -0.16391831371795207 -6.239513826189853 2.105650510525577 -13.6726069457584 66.75122293431842 14.794381182808486 18.726451509266433 0.6496378790267254 -2.9828010934111826 93.7358791929792 8.90732923902075 -0.1382749634457165 -0.5572659797530178 4.502257567024282 -0.14491011124882414 -1.6016222905460766 -0.0065886722823439246 -0.0358016109876847 -56.22511386981937 0.03048125688225983 0.03242657261804673 -56.25936235030701 -38.736948150105846 -0.029159183946389656 0.02666420577669213 -0.021515297007764982 -0.02187594372536847 0.02892633538016627 0.029557658804497913 0.03361177423968475 -0.009657153155919687 -36.65591801642209 -0.015278821163883141 -0.03415769521475801 0.015424516736931494 -0.04427783188645237 -0.0197840476909971 0.03007813116957412 -0.022385936405461444 -0.03265663948778699 -19.736331074501614 -0.04056748975378224 0.017272039996552045 -0.04888811834620852 0.007072980577436921 -0.01039288145210618 -0.0032185022437855593 -0.0373762689943306 -0.025806312396627135 24.03821664621312 -0.022274796990200105 -0.03574539111191966 28.912292297463424 0.003912355882849593 -0.012028956957253506 28.864070028389467 -0.024588872267560492 0.021114717177527855 7.88040447803186 1.7750181240667589 12.7310130844997 -66.0250150761589 23.01385637946552 -19.75619907101526 8.156295544394087 -11.95066376244354 -91.06346331476172 -1.6067948074693637 0.9104047126552008 -1.3344748962404376 -0.5167871840816113 0.10164636424993462 -8.132412544206403 0.020138455439881877 0.045014798529037 44.606448227132816 0.035514854016691064 0.027698971413742335 44.56131307638227 12.505532094569123 -0.0019665854770165967 0.013600357594318612 0.04246387694341574 -0.028886887810419808 0.0028996358101912945 0.007319702985019803 0.03407907173894667 -0.0339973033403587 11.113711715956747 0.010632463338868216 0.04954210605340056 0.022670221432267226 -0.012776229444680197 0.004117959806471048 -0.043971207026206945 -0.015554468791717332 -0.03192956150267472 4.725450535783908 0.004713530104325474 -0.00784314721406368 0.00923304188441511 -0.03515433926027816 -0.0390072455538903 0.012697302828414293 0.018101637617682107 -0.04658433810706603 -5.618635841810568 -0.007709105480536207 0.01302798784605594 -6.7616030499186115 0.006027487593972837 -0.0025323138292996563 -6.767593246543209 0.0029354438405187894 -0.0009254539519232048 -0.03709567480474326 -0.0484930051143602 0.01002963555537765 8.05547822873654 3.4964422112404625 -19.18940801447442 0.004358005275416706 10.411786802605288 -0.0029396108100824755 -5.619723862985308 -15.662473893706657 3.2351689171605895 -0.00890988842284725 0.026258231986638254 -0.011938673181442016 -0.016384025717958595 4.6828993778808075 0.048010923811679006 12.486252248853352 -8.236925181637107 6.93156981125115 0.030371358820835186 46.41015300586439 0.031773198171931555 -4.324703256729541 -14.743938169260819 -3.796808767974946 0.01909102307831015 0.0052878427214418065 0.0080616226166701 -0.035170248142418314 -10.78620101983743 0.03288881240145219 
-0.010948365698731297 -0.025142411031008113 -0.042280735472604684 -0.033187369567715896 -0.04501298905517832 0.011279419613378793 -1.9533110541335166 1.4023645878240385 -0.8267824933214515 -0.9501266618793618 3.8503011489241707 0.3488294043545105 -1.1582225719833583 -1.8531470543128166 -0.6746223301105904 -0.08303567765427172 0.39691054532667974 -0.7180080208041137 -0.30362367125359857 14.218543972161575 0.1429849223512204 -0.143996197373473 0.39991097071781634 -1.763838310842184 -0.1490950184992981 -14.631805805751238 -0.07936102234031174 -6.43309400531115 2.2202528321347863 -13.535799395738996 66.0733187985028 12.370486187835123 19.907164907931875 1.6588273889895566 -2.4797706329960554 92.99301175018701 8.995494021618452 -0.14197398784886228 -0.4940273628137717 4.492915684007614 -0.10337821400723168 -1.6222573230465587 0.0214072545965289 -0.047983053189583694 -56.26989065406683 -0.021637328853615877 -0.009464926319114735 -56.22709966562414 -38.781531809286825 0.005566793376710042 -0.0005611909149276624 0.029073403191334505 -0.00885636399765894 -0.03798733313174215 0.010150275672827995 0.01941096084632164 -0.002018906105581253 -36.657060756367585 0.02049476567115748 0.019641456711282326 0.04043894331124339 0.04650770188593652 0.007207040710644164 -0.02708342793147348 0.035616236376721816 -0.023514656287962895 -19.74799936015232 0.0040072532042015946 -0.007707954012447736 -0.022602493750358277 -0.03170594473132057 0.019862534771955948 0.018889470413520546 -0.03916255938054167 -0.03267012835991574 24.054659756046803 -0.0249140911927037 -0.04376008369634033 28.86394013955105 -0.007401073650260242 0.00015907160753461067 28.8735485357398 -0.01665179416694545 0.004791608229896498 8.324952418320512 1.8881596463902108 12.697614629105631 -65.27230160872577 21.057159339582032 -22.102144248169566 5.6241067835733585 -10.285032654052346 -90.29210591304718 -1.898594603892343 1.2136286950049615 -1.448671680038614 -0.4344373603731432 0.029999993076400673 -8.123471028936988 0.0043880686030286255 -0.0007681557670845872 44.586481357436064 0.016128192007749245 0.024570049527699946 44.56762230078393 12.463542772487887 -0.03618001461659722 -0.02551045178999249 0.014261079047259394 -0.047693725149148124 0.048938504001265454 0.008822931024953674 -0.007985714473722347 -0.002416897168481335 11.109062327784615 -0.029923388971559526 0.008638771945813112 -0.03155654635957523 -0.031584426578314104 -0.029077231535194308 -0.02005206749515348 -0.029640836269363875 0.004369211287721544 4.757420389907613 -0.02645930443867635 -0.0020827856234827543 0.035097117933078896 -0.0029103926980684662 0.032808219342505676 -0.01445742891965238 0.04760734783886976 -0.005445124323740491 -5.560819293518927 0.023514319024402156 -0.007984700654524102 -6.674688763887463 -0.024491224519527503 0.03412390207905492 -6.7358347864056185 -0.019319100962037008 -0.020009746952935115 0.006685120713397334 0.014156116825038416 -0.024876705617683376 8.014848753707849 3.4549536629593316 -19.172393239121174 -0.024603457215109936 10.392910793929216 0.04344888915261617 -5.599426036472584 -15.618898587030465 3.1578773461244602 0.048718832698536114 -0.00753029878168105 0.011563783181035032 -0.021104271362999614 4.7327747060967535 0.03831500672176639 12.40944240990526 -8.272348190591183 6.849949526372898 -0.019468827999034703 46.415011817132836 0.016779519460439568 -4.335948498547198 -14.716135621743376 -3.848240313465987 0.011582276091943192 0.045173089384374705 0.03455727075988186 -0.01912384596738611 -10.78881359548657 0.010091100665813736 
0.049154343525849714 0.013292712573338417 0.02587311194363817 0.010785609099658366 -0.03752780792996653 -0.010998939711339679 -2.045385436235128 1.4014539439739404 -0.8647378053860719 -0.9868187927123191 3.818713322476491 0.3891279838283052 -1.1217680418160432 -1.8676761341401202 -0.8827451287259437 -0.09035322923372391 0.3769129880725588 -0.7899362048461044 -0.3711270250329424 14.431412585738439 0.19102066404313417 -0.13445707162912032 0.42932890238044075 -1.5722088407263322 -0.11856700674330681 -14.508277256626076 -0.11790123267059491 -6.838284152651545 2.3315509741322717 -13.4743820822024 65.22657571587658 10.033175977143552 21.247267113979074 2.2069029714282173 -2.220875953911984 92.65362158260601 9.24359996633813 -0.09903562551961115 -0.4079035479518148 4.50918895023037 -0.17674395973208534 -1.5723020423044225 0.017312807174194103 0.024585908919965514 -56.27493272524675 0.003170569350599248 -0.026370023512664903 -56.232545966424084 -38.781196785875785 -0.047315308526056074 -0.004883094551717862 -0.025030108741906212 0.016174628970036308 0.034471590374014906 -0.018711504204095 -0.04593729189629216 0.03329323533824225 -36.68539252217323 0.028947326941806822 0.026010286455769045 -0.049018957745085884 -0.0008284351578905186 0.031996946757529746 -0.0013394225779617998 -0.027053369040556118 -0.0272209373415477 -19.729163023684862 -0.0005549836401143747 0.03395569232560406 -0.01892929387068292 -0.006593099228647718 -0.030547352988681848 0.0035666310646237727 0.00849712073815945 0.00369887150914138 24.04775636575921 -0.019063632179152443 -0.03561543620803861 28.843418047172204 -0.028808883910692498 -0.04464608590223731 28.869786846909477 -0.04320088218679156 -0.0009244948402243818 8.882737729029554 1.9713003737526809 12.601237132976133 -64.34203886413358 19.50368025918882 -24.712931503512188 3.7887524284981775 -8.910975951842923 -89.94539617895968 -2.388851833824481 1.4060226720039237 -1.3996263316549795 -0.4506799086560614 0.030058517055341086 -8.08226862899255 0.016399573799942422 0.04626041113088318 44.52498818116112 0.018017076990848962 -0.012064852506369702 44.581431983694955 12.432742395994893 0.005466765376540328 -0.042287277532977396 0.04900406839480192 0.00160773662613974 -0.02741333627824769 0.027619698858127796 0.014623020932584725 0.023336531754974268 11.095838242893695 -0.0013673107259268515 -0.0076635083196245745 -0.04699602589607811 -0.011528032655842884 0.006096825819352034 -0.02124100356320993 0.021614649612418234 -0.013038385027882229 4.785460881625697 -0.03815409131645079 0.03251059876587397 -0.03923940893077211 -0.042646191090682496 -0.02811592080931534 0.04806094960789624 -0.03550388804348386 -0.013581805485760734 -5.574006485662456 -0.022455649958299028 0.014788924140017534 -6.753156072559271 0.03777472527959127 -0.024931511151704562 -6.770011729829314 0.030510179819221047 0.040195515466306106 -0.02312395655458475 0.03769882277773647 0.021919490210317534 8.078364177928602 3.4714402552765384 -19.244782361252142 0.002138671841465732 10.366813285188137 -0.012260555670030517 -5.604909761018052 -15.632883255466007 3.1499099453748127 -0.03296347698896686 0.015221434098248523 -0.014826546098360717 -0.013691238376284158 4.745798846184694 0.014641026549379205 12.482826444436222 -8.248210224428266 6.926003037201614 0.009489351282289041 46.398332999532386 0.0075039181475557645 -4.36848379628461 -14.738063230581904 -3.8255884581683004 9.467296372270651e-05 -0.010910246668112899 -0.042742496300260474 -0.04129961167526404 -10.716263426323122 -0.02560871590098922 
0.02702120373352413 0.039756998394666274 -0.02138826191528216 0.01617858790783309 -0.024453755225339317 0.018554873600619318 -2.1323043809362057 1.5141238184093861 -0.8331431583824533 -1.0395031668861672 3.8329197051028983 0.41035127781683495 -1.166621460482113 -1.9408257839642775 -0.9237677146813058 -0.1559826408770413 0.34699231598739055 -0.836860872591396 -0.424400842178846 14.74989153095618 0.2415281042738418 -0.13332967516656946 0.5494303242930048 -1.3072381100635226 -0.15204840401337508 -14.390118903617147 -0.07630556309954872 -7.1935120366180225 2.354047231994612 -13.398953533599025 64.37478434366442 7.607952219966104 22.83100664313044 1.7238257720756602 -2.1403004097224887 92.89541890419441 8.89499153012523 -0.09752787222143244 -0.1990456828015977 4.541802848172681 -0.07790757480679772 -1.6075945234080775 -0.04703120605969203 0.033102737565870614 -56.2144529625318 0.024074044932778742 0.046504953346765056 -56.228908978744684 -38.747696032040615 0.0347031353347512 -0.014389420014445325 -0.020053517498136005 -0.03460543660056252 -0.023025118597385055 0.033557172125311924 0.008615028176697808 0.02009480572000149 -36.6687083352784 -0.039152046797547885 0.04189138196665955 -0.02316128655013033 0.04874172380129618 -0.04840335323569827 -0.024863971971715353 0.029273737368448235 -0.010133961800370028 -19.723833650861334 0.014047675991367135 0.01477072552474647 0.029481189726633675 -0.02154737835140052 0.018281621474421424 0.015284405481632674 -0.007479299246878762 0.03053942085132724 24.10390632856159 0.034555668122565435 -0.023764897346920673 28.829921874102606 0.0346086957890283 -0.017738487572059487 28.845635543533277 0.034468727841787436 -0.02552566286236069 9.402292720050303 2.06307941001095 12.501215811334232 -63.203847522058894 18.024495745133752 -27.669235777576482 2.3489065218420597 -7.576700953919183 -90.37464119623812 -2.5584311989276327 1.5729053228427252 -1.4957800352048403 -0.4751930961075662 0.052460026057823655 -8.124456623471124 -0.003279445488791292 0.017169595921766232 44.542993117862636 0.003099724033437047 0.03544237132126586 44.603069548570396 12.460986536906189 0.010967955420836248 0.03142475778542766 -0.0031467427233413158 -0.04963895141609174 0.022735325217868117 -0.016464427578498322 0.026389673892126177 0.021143098779295978 11.073300035881111 0.036417693622820345 0.02695365769950013 -0.013470907369095302 -0.0017273225458534073 0.04324267465783586 0.012192571116242078 -0.023803968778445324 -0.029943616853841587 4.747842852249236 -0.04223285993590532 0.013768935027381385 0.04625157846235327 -0.004516917069233713 0.03007977981495992 -0.03913954505151966 0.010189118312140855 0.036198495990029805 -5.632819375273171 0.016283051510645154 -0.0009659486332192823 -6.742510622301179 -0.04451586453221819 0.02764121374018606 -6.730076911437707 -0.031992708400578364 -0.0270205551426386 0.007043559313104298 -0.023302406822135215 0.01914367745760499 8.057450696273845 3.4535759557905883 -19.201329589723972 -0.020324254148797297 10.411109505481459 -0.0008642951822554392 -5.655490514094342 -15.676207830925861 3.176386202600092 0.032765709417638844 -0.01125779763649731 0.034841169375944794 -0.009255072642413436 4.687558780231765 0.01628476324765519 12.422748663467202 -8.257029592295478 6.835454522686499 0.022705643137815916 46.373157232537736 -0.020856758228040076 -4.334361040293074 -14.72425829079185 -3.8556906893306193 -0.001277562524413647 -0.033969286204799415 -0.011931108554417874 0.0005778193461017332 -10.722615196572198 -0.006561941067926648 
